{
  "title": "A.Most.Violent.Year.2014.1080p.WEB-DL.DD5.1.H264-RARBG",
  "uid": 11745689,
  "size": 4015158583,
  "categoryP": "video",
  "categoryS": "hd___movies",
  "magnet": "?xt=urn:btih:eff43392e2a7e3995cfda92aac149ad1b86833ff&amp;dn=A.Most.Violent.Year.2014.1080p.WEB-DL.DD5.1.H264-RARBG&amp;tr=udp%3A%2F%2Ftracker.openbittorrent.com%3A80&amp;tr=udp%3A%2F%2Fopen.demonii.com%3A1337&amp;tr=udp%3A%2F%2Ftracker.coppersurfer.tk%3A6969&amp;tr=udp%3A%2F%2Fexodus.desync.com%3A6969",
  "seeders": 69,
  "leechers": 8,
  "uploader": "makintos13",
  "files": 5,
  "time": 1426006066,
  "description": " &lt;a href=&quot;http://imgsleek.com/img-54ff1259626c5.html&quot; rel=&quot;nofollow&quot; target=&quot;_NEW&quot;&gt;http://imgsleek.com/img-54ff1259626c5.html&lt;/a&gt;\n &lt;a href=&quot;\nhttp://imgsleek.com/img-54ff12596bc8c.html&quot; rel=&quot;nofollow&quot; target=&quot;_NEW&quot;&gt;\nhttp://imgsleek.com/img-54ff12596bc8c.html&lt;/a&gt;\n &lt;a href=&quot;\nhttp://imgsleek.com/img-54ff125973715.html&quot; rel=&quot;nofollow&quot; target=&quot;_NEW&quot;&gt;\nhttp://imgsleek.com/img-54ff125973715.html&lt;/a&gt;\nVideo\nID                                       : 1\nFormat                                   : AVC\nFormat/Info                              : Advanced Video Codec\nFormat profile                           : &lt;a class=&quot;__cf_email__&quot; href=&quot;/cdn-cgi/l/email-protection&quot; data-cfemail=&quot;3179585659717d051f01&quot;&gt;[email&amp;#160;protected]&lt;/a&gt;&lt;script cf-hash='f9e31' type=&quot;text/javascript&quot;&gt;\n/* &lt;![CDATA[ */!function(){try{var t=&quot;currentScript&quot;in document?document.currentScript:function(){for(var t=document.getElementsByTagName(&quot;script&quot;),e=t.length;e--;)if(t[e].getAttribute(&quot;cf-hash&quot;))return t[e]}();if(t&amp;&amp;t.previousSibling){var e,r,n,i,c=t.previousSibling,a=c.getAttribute(&quot;data-cfemail&quot;);if(a){for(e=&quot;&quot;,r=parseInt(a.substr(0,2),16),n=2;a.length-n;n+=2)i=parseInt(a.substr(n,2),16)^r,e+=String.fromCharCode(i);e=document.createTextNode(e),c.parentNode.replaceChild(e,c)}}}catch(u){}}();/* ]]&gt; */&lt;/script&gt;\nFormat settings, CABAC                   : Yes\nFormat settings, ReFrames                : 5 frames\nCodec ID                                 : V_MPEG4/ISO/AVC\nDuration                                 : 2h 4mn\nBit rate                                 : 3 820 Kbps\nWidth                                    : 1 920 pixels\nHeight                                   : 794 pixels\nDisplay aspect ratio                     : 2.40:1\nFrame rate mode                          : Constant\nFrame rate                               : 24.000 fps\nColor space                              : YUV\nChroma subsampling                       : 4:2:0\nBit depth                                : 8 bits\nScan type                                : Progressive\nBits/(Pixel*Frame)                       : 0.104\nStream size                              : 3.33 GiB (89%)\nTitle                                    : A.Most.Violent.Year.2014.1080p.WEB-DL.DD5.1.H264-RARBG\nLanguage                                 : English\nDefault                                  : Yes\nForced                                   : No\nColor primaries                          : BT.709\nTransfer characteristics                 : BT.709\nMatrix coefficients                      : BT.709\nColor range                              : Limited\n\nAudio\nID                                       : 2\nFormat                                   : AC-3\nFormat/Info                              : Audio Coding 3\nMode extension                           : CM (complete main)\nFormat settings, Endianness              : Big\nCodec ID                                 : A_AC3\nDuration                                 : 2h 4mn\nBit rate mode                            : Constant\nBit rate                                 : 384 Kbps\nChannel(s)                               : 6 channels\nChannel positions                        : Front: L C R, Side: L R, LFE\nSampling rate                            : 48.0 KHz\nBit depth                                : 16 bits\nCompression mode                         : Lossy\nStream size                              : 343 MiB (9%)\nTitle                                    : A.Most.Violent.Year.2014.1080p.WEB-DL.DD5.1.H264-RARBG\nLanguage                                 : English\nDefault                                  : Yes\nForced                                   : No\n\nText\nID                                       : 3\nFormat                                   : UTF-8\nCodec ID                                 : S_TEXT/UTF8\nCodec ID/Info                            : UTF-8 Plain Text\nLanguage                                 : English\nDefault                                  : Yes\nForced                                   : No\n\nMenu\n00:00:00.000                             : en:1\n00:12:24.000                             : en:2\n00:27:36.000                             : en:3\n00:38:51.000                             : en:4\n00:50:30.000                             : en:5\n01:01:53.000                             : en:6\n01:13:17.000                             : en:7\n01:26:04.000                             : en:8\n01:39:48.000                             : en:9\n01:50:36.000                             : en:10\n01:59:36.000                             : en:11",
  "parsed": {
    "xt": "urn:btih:eff43392e2a7e3995cfda92aac149ad1b86833ff",
    "dn": "A.Most.Violent.Year.2014.1080p.WEB-DL.DD5.1.H264-RARBG",
    "tr": [
      "udp://exodus.desync.com:6969",
      "udp://open.demonii.com:1337",
      "udp://tracker.coppersurfer.tk:6969",
      "udp://tracker.openbittorrent.com:80"
    ],
    "infoHash": "eff43392e2a7e3995cfda92aac149ad1b86833ff",
    "infoHashBuffer": {
      "type": "Buffer",
      "data": [
        239,
        244,
        51,
        146,
        226,
        167,
        227,
        153,
        92,
        253,
        169,
        42,
        172,
        20,
        154,
        209,
        184,
        104,
        51,
        255
      ]
    },
    "name": "A.Most.Violent.Year.2014.1080p.WEB-DL.DD5.1.H264-RARBG",
    "announce": [
      "udp://exodus.desync.com:6969",
      "udp://open.demonii.com:1337",
      "udp://tracker.coppersurfer.tk:6969",
      "udp://tracker.openbittorrent.com:80"
    ],
    "urlList": []
  },
  "previous": 77,
  "peers": 2,
  "last_updated": "2016-12-25T17:41:56.949Z"
}